<mxfile host="app.diagrams.net" modified="2023-11-02T11:30:15.040Z" agent="Mozilla/5.0 (Macintosh; Intel Mac OS X 10_15_7) AppleWebKit/537.36 (KHTML, like Gecko) Chrome/118.0.0.0 Safari/537.36" etag="mWURmxrNU0gerKaCB-8F" version="22.0.8" type="github">
  <diagram name="第 1 页" id="zb4yxv78aIrdXpAqasZd">
    <mxGraphModel dx="823" dy="545" grid="1" gridSize="10" guides="1" tooltips="1" connect="1" arrows="1" fold="1" page="1" pageScale="1" pageWidth="827" pageHeight="1169" math="0" shadow="0">
      <root>
        <mxCell id="0" />
        <mxCell id="1" parent="0" />
        <mxCell id="bDtl_CRUrRyryX_wpkh0-1" value="" style="triangle;whiteSpace=wrap;html=1;" vertex="1" parent="1">
          <mxGeometry x="220" y="230" width="60" height="80" as="geometry" />
        </mxCell>
        <mxCell id="bDtl_CRUrRyryX_wpkh0-2" value="" style="triangle;whiteSpace=wrap;html=1;" vertex="1" parent="1">
          <mxGeometry x="300" y="230" width="60" height="80" as="geometry" />
        </mxCell>
      </root>
    </mxGraphModel>
  </diagram>
</mxfile>
